<svg width="10" height="18" viewBox="0 0 10 18" fill="none" xmlns="http://www.w3.org/2000/svg">
<path d="M8.95117 9.6875H6.46094V17.125H3.14062V9.6875H0.451172V6.59961H3.14062V4.27539C3.14062 3.38997 3.30664 2.63737 3.63867 2.01758C3.9707 1.39779 4.43555 0.932943 5.0332 0.623047C5.65299 0.291016 6.36133 0.125 7.1582 0.125C7.51237 0.125 7.88867 0.147135 8.28711 0.191406C8.68555 0.213542 8.99544 0.246745 9.2168 0.291016L9.54883 0.324219V2.94727H8.2207C7.60091 2.94727 7.14714 3.11328 6.85938 3.44531C6.59375 3.75521 6.46094 4.14258 6.46094 4.60742V6.59961H9.41602L8.95117 9.6875Z" fill="white"/>
</svg>
