<svg width="16" height="16" viewBox="0 0 16 16" fill="none" xmlns="http://www.w3.org/2000/svg">
<path d="M5.31055 4.93555C6.06315 4.18294 6.9707 3.80664 8.0332 3.80664C9.0957 3.80664 9.99219 4.18294 10.7227 4.93555C11.4753 5.66602 11.8516 6.5625 11.8516 7.625C11.8516 8.6875 11.4753 9.59505 10.7227 10.3477C9.99219 11.0781 9.0957 11.4434 8.0332 11.4434C6.9707 11.4434 6.06315 11.0781 5.31055 10.3477C4.58008 9.59505 4.21484 8.6875 4.21484 7.625C4.21484 6.5625 4.58008 5.66602 5.31055 4.93555ZM6.27344 9.38477C6.76042 9.87174 7.34701 10.1152 8.0332 10.1152C8.7194 10.1152 9.30599 9.87174 9.79297 9.38477C10.2799 8.89779 10.5234 8.3112 10.5234 7.625C10.5234 6.9388 10.2799 6.35221 9.79297 5.86523C9.30599 5.37826 8.7194 5.13477 8.0332 5.13477C7.34701 5.13477 6.76042 5.37826 6.27344 5.86523C5.78646 6.35221 5.54297 6.9388 5.54297 7.625C5.54297 8.3112 5.78646 8.89779 6.27344 9.38477ZM12.6152 3.04297C12.7923 3.19792 12.8809 3.39714 12.8809 3.64062C12.8809 3.88411 12.7923 4.0944 12.6152 4.27148C12.4603 4.44857 12.2611 4.53711 12.0176 4.53711C11.7741 4.53711 11.5638 4.44857 11.3867 4.27148C11.2096 4.0944 11.1211 3.88411 11.1211 3.64062C11.1211 3.39714 11.2096 3.19792 11.3867 3.04297C11.5638 2.86589 11.7741 2.77734 12.0176 2.77734C12.2611 2.77734 12.4603 2.86589 12.6152 3.04297ZM15.4375 4.57031C15.4596 5.16797 15.4707 6.1862 15.4707 7.625C15.4707 9.0638 15.4596 10.082 15.4375 10.6797C15.3711 12.0299 14.9616 13.0814 14.209 13.834C13.4785 14.5645 12.4382 14.9518 11.0879 14.9961C10.4902 15.0404 9.47201 15.0625 8.0332 15.0625C6.5944 15.0625 5.57617 15.0404 4.97852 14.9961C3.62826 14.9297 2.58789 14.5312 1.85742 13.8008C1.56966 13.5352 1.33724 13.2253 1.16016 12.8711C0.983073 12.5169 0.85026 12.1738 0.761719 11.8418C0.695312 11.5098 0.662109 11.1224 0.662109 10.6797C0.617839 10.082 0.595703 9.0638 0.595703 7.625C0.595703 6.1862 0.617839 5.1569 0.662109 4.53711C0.728516 3.20898 1.12695 2.17969 1.85742 1.44922C2.58789 0.696615 3.62826 0.287109 4.97852 0.220703C5.57617 0.198568 6.5944 0.1875 8.0332 0.1875C9.47201 0.1875 10.4902 0.198568 11.0879 0.220703C12.4382 0.287109 13.4785 0.696615 14.209 1.44922C14.9616 2.17969 15.3711 3.22005 15.4375 4.57031ZM13.8438 12.0078C13.9102 11.8307 13.9655 11.6094 14.0098 11.3438C14.054 11.056 14.0872 10.724 14.1094 10.3477C14.1315 9.94922 14.1426 9.62826 14.1426 9.38477C14.1426 9.14128 14.1426 8.79818 14.1426 8.35547C14.1426 7.91276 14.1426 7.66927 14.1426 7.625C14.1426 7.55859 14.1426 7.3151 14.1426 6.89453C14.1426 6.45182 14.1426 6.10872 14.1426 5.86523C14.1426 5.62174 14.1315 5.31185 14.1094 4.93555C14.0872 4.53711 14.054 4.20508 14.0098 3.93945C13.9655 3.65169 13.9102 3.41927 13.8438 3.24219C13.5781 2.55599 13.1022 2.08008 12.416 1.81445C12.2389 1.74805 12.0065 1.69271 11.7188 1.64844C11.4531 1.60417 11.1211 1.57096 10.7227 1.54883C10.3464 1.52669 10.0365 1.51562 9.79297 1.51562C9.57161 1.51562 9.22852 1.51562 8.76367 1.51562C8.32096 1.51562 8.07747 1.51562 8.0332 1.51562C7.98893 1.51562 7.74544 1.51562 7.30273 1.51562C6.86003 1.51562 6.51693 1.51562 6.27344 1.51562C6.02995 1.51562 5.70898 1.52669 5.31055 1.54883C4.93424 1.57096 4.60221 1.60417 4.31445 1.64844C4.04883 1.69271 3.82747 1.74805 3.65039 1.81445C2.96419 2.08008 2.48828 2.55599 2.22266 3.24219C2.15625 3.41927 2.10091 3.65169 2.05664 3.93945C2.01237 4.20508 1.97917 4.53711 1.95703 4.93555C1.9349 5.31185 1.92383 5.62174 1.92383 5.86523C1.92383 6.08659 1.92383 6.42969 1.92383 6.89453C1.92383 7.33724 1.92383 7.58073 1.92383 7.625C1.92383 7.71354 1.92383 7.92383 1.92383 8.25586C1.92383 8.56576 1.92383 8.83138 1.92383 9.05273C1.92383 9.25195 1.92383 9.51758 1.92383 9.84961C1.94596 10.1816 1.9681 10.4694 1.99023 10.7129C2.01237 10.9342 2.04557 11.1667 2.08984 11.4102C2.13411 11.6536 2.17839 11.8529 2.22266 12.0078C2.51042 12.694 2.98633 13.1699 3.65039 13.4355C3.82747 13.502 4.04883 13.5573 4.31445 13.6016C4.60221 13.6458 4.93424 13.679 5.31055 13.7012C5.70898 13.7233 6.01888 13.7344 6.24023 13.7344C6.48372 13.7344 6.82682 13.7344 7.26953 13.7344C7.73438 13.7344 7.98893 13.7344 8.0332 13.7344C8.09961 13.7344 8.3431 13.7344 8.76367 13.7344C9.20638 13.7344 9.54948 13.7344 9.79297 13.7344C10.0365 13.7344 10.3464 13.7233 10.7227 13.7012C11.1211 13.679 11.4531 13.6458 11.7188 13.6016C12.0065 13.5573 12.2389 13.502 12.416 13.4355C13.1022 13.1478 13.5781 12.6719 13.8438 12.0078Z" fill="white"/>
</svg>
