<svg width="96" height="96" viewBox="0 0 96 96" fill="none" xmlns="http://www.w3.org/2000/svg">
<g id="poster 1">
<path id="Vector" d="M63.3626 63.3652C63.3626 62.3259 62.5196 61.4829 61.4803 61.4829H23.6426C22.6033 61.4829 21.7603 62.3259 21.7603 63.3652C21.7603 64.4045 22.6033 65.2476 23.6426 65.2476H61.4803C62.5196 65.2476 63.3626 64.4045 63.3626 63.3652Z" fill="#404961"/>
<path id="Vector_2" d="M85.8684 79.4502H77.7458V49.1367C77.7458 48.0974 76.9028 47.2544 75.8635 47.2544C74.8242 47.2544 73.9812 48.0974 73.9812 49.1367V79.4502H35.5078C34.4685 79.4502 33.6255 80.2932 33.6255 81.3325C33.6255 87.3428 28.7358 92.2332 22.7271 92.2354C16.7168 92.2332 11.8271 87.3428 11.8271 81.3325V20.1138H13.9534V22.7234C13.9534 23.7627 14.7964 24.6057 15.8357 24.6057H26.373C27.4124 24.6057 28.2554 23.7627 28.2554 22.7234V20.1138H57.553V22.7234C57.553 23.7627 58.396 24.6057 59.436 24.6057H69.9727C71.012 24.6057 71.855 23.7627 71.855 22.7234V20.1138H73.9812V34.0781C73.9812 35.1174 74.8242 35.9604 75.8635 35.9604C76.9028 35.9604 77.7458 35.1174 77.7458 34.0781V18.2314C77.7458 17.1921 76.9028 16.3491 75.8635 16.3491H71.855V13.7395C71.855 12.7002 71.012 11.8572 69.9727 11.8572H66.5867V1.88232C66.5867 0.843018 65.7437 0 64.7043 0C63.665 0 62.822 0.843018 62.822 1.88232V11.8572H59.436C58.3967 11.8572 57.5537 12.7002 57.5537 13.7395V16.3491H28.2554V13.7395C28.2554 12.7002 27.4124 11.8572 26.373 11.8572H22.9871V1.88232C22.9871 0.843018 22.144 0 21.1047 0C20.0647 0 19.2217 0.843018 19.2217 1.88232V11.8572H15.8357C14.7964 11.8572 13.9534 12.7002 13.9534 13.7395V16.3491H9.94482C8.90552 16.3491 8.0625 17.1921 8.0625 18.2314V81.3325C8.0625 89.4119 14.6316 95.9905 22.7109 95.9993C22.7146 95.9993 22.7183 96 22.7227 96H73.0825C81.1707 96 87.7507 89.4199 87.7507 81.3325C87.7507 80.2932 86.9077 79.4502 85.8684 79.4502ZM61.3176 15.6218H68.0903V20.8411H61.3176V15.6218ZM17.718 15.6218H24.4907V20.8411H17.718V15.6218ZM73.0825 92.2354H32.5312C35.0764 89.9451 36.8188 86.7773 37.2773 83.2148H83.8228C82.9285 88.333 78.4526 92.2354 73.0825 92.2354Z" fill="#404961"/>
<path id="Vector_3" d="M23.6425 56.7576H61.4802C62.1591 56.7576 62.7861 56.3921 63.1193 55.8003C63.4533 55.2085 63.4423 54.4834 63.0915 53.9019L47.0602 27.3655C46.7189 26.8015 46.1081 26.4565 45.4489 26.4565C44.7897 26.4565 44.1782 26.8015 43.8376 27.3655L37.4487 37.9409L36.1721 35.8286C35.8315 35.2646 35.2199 34.9197 34.5607 34.9197C33.9015 34.9197 33.2907 35.2646 32.9494 35.8286L22.0312 53.9019C21.6796 54.4834 21.6694 55.2085 22.0026 55.8003C22.3366 56.3921 22.9636 56.7576 23.6425 56.7576ZM45.4489 31.9797L58.1432 52.9937H46.5417L39.6474 41.5818L45.4489 31.9797ZM34.5615 40.4421L42.1435 52.9937H26.9787L34.5615 40.4421Z" fill="#404961"/>
<path id="Vector_4" d="M29.8352 68.2549C28.7952 68.2549 27.9529 69.0979 27.9529 70.1372C27.9529 71.1765 28.7952 72.0195 29.8352 72.0195H47.7444C48.7837 72.0195 49.6267 71.1765 49.6267 70.1372C49.6267 69.0979 48.7837 68.2549 47.7444 68.2549H29.8352Z" fill="#404961"/>
<path id="Vector_5" d="M56.8535 69.0929C56.406 68.4234 55.5469 68.0997 54.7705 68.3282C54.0242 68.548 53.4793 69.2064 53.4119 69.9835C53.3445 70.765 53.7971 71.5304 54.5113 71.8505C55.2202 72.1683 56.0662 72.0182 56.6177 71.4681C57.2461 70.8419 57.3457 69.829 56.8535 69.0929Z" fill="#404961"/>
<path id="Vector_6" d="M77.6095 40.8877C77.3085 40.1589 76.5578 39.6857 75.7704 39.7282C74.9875 39.7707 74.2997 40.3112 74.0712 41.0612C73.8456 41.801 74.1108 42.6301 74.726 43.1003C75.3588 43.5852 76.2531 43.6152 76.9174 43.1728C77.6542 42.6821 77.9479 41.7058 77.6095 40.8877Z" fill="#404961"/>
</g>
</svg>
