<svg width="18" height="15" viewBox="0 0 18 15" fill="none" xmlns="http://www.w3.org/2000/svg">
<path d="M15.7402 4.17188C15.7624 4.26042 15.7734 4.4043 15.7734 4.60352C15.7734 5.77669 15.5521 6.94987 15.1094 8.12305C14.6667 9.27409 14.0358 10.3366 13.2168 11.3105C12.4199 12.2624 11.3796 13.0371 10.0957 13.6348C8.81185 14.2324 7.39518 14.5312 5.8457 14.5312C3.89779 14.5312 2.11589 14.0111 0.5 12.9707C0.74349 12.9928 1.02018 13.0039 1.33008 13.0039C2.94596 13.0039 4.39583 12.5059 5.67969 11.5098C4.90495 11.5098 4.21875 11.2884 3.62109 10.8457C3.04557 10.3809 2.64714 9.80534 2.42578 9.11914C2.64714 9.14128 2.85742 9.15234 3.05664 9.15234C3.36654 9.15234 3.67643 9.11914 3.98633 9.05273C3.45508 8.94206 2.97917 8.7207 2.55859 8.38867C2.13802 8.05664 1.80599 7.6582 1.5625 7.19336C1.31901 6.70638 1.19727 6.1862 1.19727 5.63281V5.56641C1.68424 5.85417 2.20443 6.00911 2.75781 6.03125C1.71745 5.32292 1.19727 4.34896 1.19727 3.10938C1.19727 2.48958 1.36328 1.90299 1.69531 1.34961C2.55859 2.43424 3.61003 3.29753 4.84961 3.93945C6.11133 4.58138 7.45052 4.93555 8.86719 5.00195C8.82292 4.73633 8.80078 4.4707 8.80078 4.20508C8.80078 3.25326 9.13281 2.43424 9.79688 1.74805C10.4831 1.06185 11.3021 0.71875 12.2539 0.71875C13.2721 0.71875 14.1243 1.08398 14.8105 1.81445C15.6074 1.65951 16.349 1.38281 17.0352 0.984375C16.7695 1.80339 16.2604 2.44531 15.5078 2.91016C16.1719 2.82161 16.8359 2.63346 17.5 2.3457C17.013 3.05404 16.4264 3.66276 15.7402 4.17188Z" fill="white"/>
</svg>
