<svg width="19" height="11" viewBox="0 0 19 11" fill="none" xmlns="http://www.w3.org/2000/svg">
<path d="M17.5332 1.04297C17.4668 1.375 17.2012 1.91732 16.7363 2.66992C16.2936 3.42253 15.8841 4.08659 15.5078 4.66211C15.1315 5.21549 14.9323 5.50326 14.9102 5.52539C14.7773 5.72461 14.7109 5.86849 14.7109 5.95703C14.7109 6.04557 14.7773 6.20052 14.9102 6.42188C14.9102 6.42188 14.9766 6.49935 15.1094 6.6543C15.2643 6.80924 15.4414 6.98633 15.6406 7.18555C15.8398 7.38477 16.0612 7.61719 16.3047 7.88281C16.5482 8.14844 16.7695 8.41406 16.9688 8.67969C17.1901 8.92318 17.3783 9.17773 17.5332 9.44336C17.7103 9.70898 17.832 9.93034 17.8984 10.1074C18.0534 10.6608 17.832 10.9375 17.2344 10.9375H15.2754C15.1204 10.9375 14.9876 10.9154 14.877 10.8711C14.7663 10.8268 14.6445 10.7493 14.5117 10.6387C14.3789 10.528 14.2572 10.4062 14.1465 10.2734C14.0358 10.1406 13.8698 9.95247 13.6484 9.70898C13.4271 9.46549 13.2057 9.23307 12.9844 9.01172C12.099 8.17057 11.446 7.75 11.0254 7.75C10.7598 7.75 10.6048 7.82747 10.5605 7.98242C10.5163 8.13737 10.4941 8.58008 10.4941 9.31055C10.5163 9.66471 10.5273 9.95247 10.5273 10.1738C10.5273 10.4395 10.4388 10.6387 10.2617 10.7715C10.0846 10.8822 9.69727 10.9375 9.09961 10.9375C8.05924 10.9375 7.00781 10.6276 5.94531 10.0078C4.88281 9.38802 3.95312 8.5026 3.15625 7.35156C2.40365 6.33333 1.77279 5.32617 1.26367 4.33008C0.776693 3.31185 0.455729 2.53711 0.300781 2.00586C0.145833 1.47461 0.0683594 1.09831 0.0683594 0.876953C0.0683594 0.500651 0.289714 0.3125 0.732422 0.3125H2.69141C2.9349 0.3125 3.11198 0.367839 3.22266 0.478516C3.35547 0.589193 3.46615 0.788411 3.55469 1.07617C4.01953 2.42643 4.58398 3.63281 5.24805 4.69531C5.93424 5.75781 6.45443 6.28906 6.80859 6.28906C6.94141 6.28906 7.02995 6.24479 7.07422 6.15625C7.14062 6.04557 7.17383 5.84635 7.17383 5.55859V2.66992C7.15169 2.36003 7.09635 2.0944 7.00781 1.87305C6.91927 1.65169 6.83073 1.49674 6.74219 1.4082C6.65365 1.29753 6.5651 1.18685 6.47656 1.07617C6.41016 0.965495 6.37695 0.865885 6.37695 0.777344C6.37695 0.688802 6.39909 0.611328 6.44336 0.544922C6.48763 0.478516 6.54297 0.423177 6.60938 0.378906C6.69792 0.334635 6.78646 0.3125 6.875 0.3125H9.96289C10.3171 0.3125 10.4941 0.55599 10.4941 1.04297V4.89453C10.4941 5.27083 10.5938 5.45898 10.793 5.45898C11.0143 5.45898 11.3242 5.25977 11.7227 4.86133C12.1432 4.39648 12.5527 3.83203 12.9512 3.16797C13.3496 2.50391 13.6484 1.95052 13.8477 1.50781L14.1465 0.876953C14.3014 0.500651 14.5781 0.3125 14.9766 0.3125H16.9355C17.4668 0.3125 17.666 0.55599 17.5332 1.04297Z" fill="white"/>
</svg>
